<?xml version="1.0" encoding="UTF-8"?>
<svg width="220px" height="70px" viewBox="0 0 220 70" version="1.1" xmlns="http://www.w3.org/2000/svg" xmlns:xlink="http://www.w3.org/1999/xlink">
    <!-- Generator: Sketch 61 (89581) - https://sketch.com -->
    <title>编组</title>
    <desc>Created with Sketch.</desc>
    <defs>
        <polygon id="path-1" points="0 69.9753488 219.664031 69.9753488 219.664031 0 0 0"></polygon>
    </defs>
    <g id="页面-1" stroke="none" stroke-width="1" fill="none" fill-rule="evenodd">
        <g id="01-首页" transform="translate(-138.000000, -37.000000)">
            <g id="top">
                <g id="编组" transform="translate(138.000000, 37.000000)">
                    <path d="M172.701705,29.1627907 L172.701705,21.9599225 L168.527674,21.9599225 L168.527674,28.2145736 C168.527674,28.8865116 167.983643,29.4313953 167.311705,29.4313953 L165.707752,29.4313953 C162.463178,29.4313953 159.833411,26.8016279 159.833411,23.557907 L159.833411,22.1151163 C159.833411,18.8705426 162.463178,16.2407752 165.707752,16.2407752 L172.576357,16.2407752 L172.576357,12.3984496 L165.596047,12.3984496 C160.107984,12.3984496 155.661085,16.8462016 155.661085,22.3342636 L155.661085,23.3387597 C155.661085,28.825969 160.107984,33.2745736 165.596047,33.2745736 L168.589922,33.2745736 C170.860698,33.2745736 172.701705,31.4335659 172.701705,29.1627907" id="Fill-1" fill="#949494"></path>
                    <path d="M86.4806357,24.6577364 L89.3969147,24.6577364 C90.6828062,24.6577364 91.7256744,25.7006047 91.7256744,26.9864961 C91.7256744,28.2723876 90.6828062,29.3144031 89.3969147,29.3144031 L80.8535814,29.3144031 L80.8535814,33.3920775 L89.3210233,33.3920775 C92.8589302,33.3920775 95.7274574,30.5244031 95.7274574,26.9864961 L95.7274574,26.9856434 C95.7274574,23.4485891 92.8589302,20.580062 89.3210233,20.580062 L86.4047442,20.580062 C85.2467597,20.580062 84.3087752,19.6420775 84.3087752,18.484093 C84.3087752,17.3261085 85.2467597,16.3872713 86.4047442,16.3872713 L94.1277674,16.3872713 L94.1277674,12.3104496 L86.4806357,12.3104496 C83.0706357,12.3104496 80.3069922,15.074093 80.3069922,18.484093 C80.3069922,21.8932403 83.0706357,24.6577364 86.4806357,24.6577364" id="Fill-3" fill="#949494"></path>
                    <mask id="mask-2" fill="white">
                        <use xlink:href="#path-1"></use>
                    </mask>
                    <g id="Clip-6"></g>
                    <polygon id="Fill-5" fill="#949494" mask="url(#mask-2)" points="215.154031 33.1867442 219.327209 33.1867442 219.327209 12.2628682 215.154031 12.2628682"></polygon>
                    <polygon id="Fill-7" fill="#949494" mask="url(#mask-2)" points="180.220419 25.2964186 188.251271 25.2964186 188.251271 33.2744031 192.425302 33.2744031 192.425302 12.3505271 188.251271 12.3505271 188.251271 21.1786667 180.220419 21.1786667 180.220419 12.3505271 176.04724 12.3505271 176.04724 33.2744031 180.220419 33.2744031"></polygon>
                    <polygon id="Fill-8" fill="#949494" mask="url(#mask-2)" points="101.810372 25.2560853 109.841225 25.2560853 109.841225 33.2340698 114.014403 33.2340698 114.014403 12.3101938 109.841225 12.3101938 109.841225 21.1383333 101.810372 21.1383333 101.810372 12.3101938 97.6371938 12.3101938 97.6371938 33.2340698 101.810372 33.2340698"></polygon>
                    <path d="M203.788302,17.3384729 L206.478612,25.2823488 L201.108225,25.2823488 L203.788302,17.3384729 Z M207.844659,29.3148295 L209.155279,33.1861473 L213.33869,33.1861473 L206.293574,12.3100233 L203.788302,12.3100233 L201.283031,12.3100233 L194.237915,33.1861473 L198.441791,33.1861473 L199.749,29.3148295 L207.844659,29.3148295 Z" id="Fill-9" fill="#949494" mask="url(#mask-2)"></path>
                    <path d="M215.505605,52.8680465 L215.505605,60.2312248 C215.505605,60.9006047 214.962426,61.4437829 214.293047,61.4437829 L210.674984,61.4437829 C207.442349,61.4437829 204.821961,58.8225426 204.821961,55.589907 L204.821961,53.0232403 C204.821961,49.7906047 207.442349,47.1693643 210.674984,47.1693643 L219.538938,47.1693643 L219.538938,43.3406822 L210.564132,43.3406822 C205.095682,43.3406822 200.663279,47.7730853 200.663279,53.2406822 L200.663279,55.3724651 C200.663279,60.840062 205.095682,65.2724651 210.564132,65.2724651 L215.566147,65.2724651 C217.830101,65.2724651 219.663434,63.4382791 219.663434,61.1751783 L219.663434,52.8680465 L215.505605,52.8680465 Z" id="Fill-10" fill="#949494" mask="url(#mask-2)"></path>
                    <polygon id="Fill-11" fill="#949494" mask="url(#mask-2)" points="139.171062 58.6138837 128.501915 43.340938 124.343233 43.340938 124.343233 65.2727209 128.501915 65.2727209 128.501915 50.0185349 139.171062 65.2727209 143.328891 65.2727209 143.328891 43.340938 139.171062 43.340938"></polygon>
                    <polygon id="Fill-12" fill="#949494" mask="url(#mask-2)" points="170.422403 65.2726357 174.580233 65.2726357 174.580233 43.3408527 170.422403 43.3408527"></polygon>
                    <polygon id="Fill-13" fill="#949494" mask="url(#mask-2)" points="193.538178 58.6138837 182.869031 43.340938 178.710349 43.340938 178.710349 65.2727209 182.869031 65.2727209 182.869031 50.0185349 193.538178 65.2727209 197.69686 65.2727209 197.69686 43.340938 193.538178 43.340938"></polygon>
                    <path d="M107.888853,56.2672171 L111.06862,48.5092326 L114.247535,56.2672171 L107.888853,56.2672171 Z M111.06862,43.340938 L108.908698,43.340938 L99.5748992,65.2727209 L104.233271,65.2727209 L106.26614,60.2852016 L115.870248,60.2852016 L117.903116,65.2727209 L122.561488,65.2727209 L113.22769,43.340938 L111.06862,43.340938 Z" id="Fill-14" fill="#949494" mask="url(#mask-2)"></path>
                    <path d="M157.939961,50.6247287 C159.317946,51.1039535 160.607248,51.8151163 161.841977,52.7803876 C164.341279,50.4021705 165.909419,47.0544186 165.909419,43.3408527 L161.751589,43.3408527 C161.751589,46.3534884 160.239729,49.0165116 157.939961,50.6247287" id="Fill-15" fill="#949494" mask="url(#mask-2)"></path>
                    <path d="M96.9276512,56.6161473 C97.897186,55.2407209 98.4719147,53.5676977 98.4719147,51.7599457 C98.4719147,47.0938992 94.6764884,43.2993256 90.0112946,43.2993256 L83.9161008,43.2993256 L83.9161008,43.301031 L80.7977287,43.301031 L80.7977287,65.2797132 L84.9564109,65.2797132 L84.9564109,60.2205659 L89.260907,60.2205659 C92.0467209,60.2205659 94.3132326,62.4862248 94.3132326,65.2720388 L98.4719147,65.2720388 C98.4719147,60.1932791 94.3396667,56.0618837 89.260907,56.0618837 L84.9564109,56.0618837 L84.9564109,47.457155 L90.0112946,47.457155 C92.3826899,47.457155 94.3132326,49.386845 94.3132326,51.7599457 C94.3132326,52.7516512 93.9627674,53.6538217 93.3965659,54.3828915 C94.7165659,54.8697907 95.8336202,55.6065349 96.9276512,56.6161473" id="Fill-16" fill="#949494" mask="url(#mask-2)"></path>
                    <path d="M152.863589,52.2268915 L151.731186,52.2268915 L151.731186,43.3006899 L147.573357,43.3006899 L147.573357,65.2802248 L151.731186,65.2802248 L151.731186,56.3855736 L152.863589,56.3855736 C157.764132,56.3855736 161.751419,60.3728605 161.751419,65.2725504 L165.909248,65.2725504 C165.909248,58.079062 160.057078,52.2268915 152.863589,52.2268915" id="Fill-17" fill="#949494" mask="url(#mask-2)"></path>
                    <polygon id="Fill-18" fill="#949494" mask="url(#mask-2)" points="141.179628 19.1800775 149.211333 33.1867442 153.384512 33.1867442 153.384512 12.3097674 149.211333 12.3097674 149.211333 26.3164341 141.179628 12.3097674 137.00645 12.3097674 137.00645 33.1867442 141.179628 33.1867442"></polygon>
                    <path d="M125.537713,17.3384729 L128.228023,25.2823488 L122.857636,25.2823488 L125.537713,17.3384729 Z M121.497558,29.3148295 L129.59407,29.3148295 L130.90469,33.1861473 L135.088101,33.1861473 L128.042984,12.3100233 L125.537713,12.3100233 L123.032442,12.3100233 L115.987326,33.1861473 L120.191202,33.1861473 L121.497558,29.3148295 Z" id="Fill-19" fill="#949494" mask="url(#mask-2)"></path>
                    <path d="M65.7286667,-0.000170542636 L4.24634109,-0.000170542636 C1.90137984,-0.000170542636 -0.000170542636,1.90052713 -0.000170542636,4.24634109 L-0.000170542636,65.7286667 C-0.000170542636,68.0744806 1.90137984,69.976031 4.24634109,69.976031 L65.7286667,69.976031 C68.0736279,69.976031 69.9751783,68.0744806 69.9751783,65.7286667 L69.9751783,4.24634109 C69.9751783,1.90052713 68.0736279,-0.000170542636 65.7286667,-0.000170542636" id="Fill-20" fill="#E5002D" mask="url(#mask-2)"></path>
                    <path d="M45.2319147,7.07470543 C42.2482713,7.07470543 38.6711395,7.07470543 34.7947054,7.07555814 L34.7947054,40.3509845 L45.2319147,40.3509845 L45.2319147,7.07470543 Z" id="Fill-21" fill="#FEFEFE" mask="url(#mask-2)"></path>
                    <path d="M17.6448527,18.2761163 C13.9321395,18.2761163 10.3695039,18.2761163 7.20764341,18.2761163 L7.20764341,40.351155 L17.6448527,40.351155 L17.6448527,18.2761163 Z" id="Fill-22" fill="#F9CC88" mask="url(#mask-2)"></path>
                    <polygon id="Fill-23" fill="#FDEABE" mask="url(#mask-2)" points="21.0023256 40.3512403 31.4378295 40.3512403 31.4378295 12.6747287 21.0023256 12.6747287"></polygon>
                    <path d="M62.8799225,17.059124 C62.8799225,11.5957907 58.4858915,7.16424031 53.0396124,7.0926124 L53.0396124,7.07555814 L48.5773643,7.07555814 L48.5773643,27.0333101 L53.0396124,27.0333101 L53.0396124,27.0264884 C58.4858915,26.9540078 62.8799225,22.5224574 62.8799225,17.059124" id="Fill-24" fill="#FEFEFE" mask="url(#mask-2)"></path>
                    <path d="M62.8765969,40.3521783 C62.8433411,34.9169845 58.4655116,30.5178372 53.0396977,30.4462093 L53.0396977,30.4393876 L48.5774496,30.4393876 L48.5774496,40.3521783 L62.8765969,40.3521783 Z" id="Fill-25" fill="#FEFEFE" mask="url(#mask-2)"></path>
                    <path d="M11.0484341,43.3017132 L7.70068217,43.3017132 L7.70068217,44.0700078 L7.20696124,44.0700078 L7.20696124,47.1875271 L7.70068217,47.1875271 L7.70068217,52.1196202 C7.70068217,53.7892326 9.05393798,55.1424884 10.7226977,55.1424884 L12.3982791,55.1424884 L12.3982791,57.5556667 L7.20696124,57.5556667 L7.20696124,60.6723333 L12.3982791,60.6723333 L12.3982791,62.7717132 L15.746031,62.7717132 L15.746031,60.6723333 L19.6241705,60.6723333 L19.6241705,57.5556667 L15.746031,57.5556667 L15.746031,55.1424884 L19.6241705,55.1424884 L19.6241705,52.0138837 L15.746031,52.0138837 L15.746031,48.7846589 L12.3982791,48.7846589 L12.3982791,52.0138837 L11.2650233,52.0138837 C11.1456434,52.0138837 11.0484341,51.9166744 11.0484341,51.7964419 L11.0484341,47.1875271 L19.6241705,47.1875271 L19.6241705,44.0700078 L11.0484341,44.0700078 L11.0484341,43.3017132 Z" id="Fill-26" fill="#FEFEFE" mask="url(#mask-2)"></path>
                    <path d="M24.3229612,47.187186 L30.2348217,47.187186 C30.3542016,47.187186 30.4514109,47.2843953 30.4514109,47.4037752 L30.4514109,52.6581938 L33.7991628,52.6581938 L33.7991628,47.0925349 C33.7991628,45.4237752 32.445907,44.0705194 30.7771473,44.0705194 L24.3229612,44.0705194 L24.3229612,43.3013721 L20.9752093,43.3013721 L20.9752093,52.6581938 L24.3229612,52.6581938 L24.3229612,47.187186 Z" id="Fill-27" fill="#FEFEFE" mask="url(#mask-2)"></path>
                    <polygon id="Fill-28" fill="#FEFEFE" mask="url(#mask-2)" points="45.5775194 62.7716279 48.9252713 62.7716279 48.9252713 54.1148837 45.5775194 54.1148837"></polygon>
                    <polygon id="Fill-29" fill="#FEFEFE" mask="url(#mask-2)" points="36.0288372 62.7716279 39.3765891 62.7716279 39.3765891 54.1148837 36.0288372 54.1148837"></polygon>
                    <polygon id="Fill-30" fill="#FEFEFE" mask="url(#mask-2)" points="59.327093 43.5257209 59.327093 55.5711473 50.3181783 55.5711473 50.3181783 58.6980465 59.327093 58.6980465 59.327093 62.7714574 62.674845 62.7714574 62.674845 43.5257209"></polygon>
                    <polygon id="Fill-31" fill="#FEFEFE" mask="url(#mask-2)" points="36.0290078 46.6442636 40.8331938 46.6442636 40.8331938 49.5409302 36.0290078 49.5409302 36.0290078 52.6584496 40.8331938 52.6584496 40.8331938 62.7716279 44.1817984 62.7716279 44.1817984 52.6584496 48.9254419 52.6584496 48.9254419 49.5409302 44.1817984 49.5409302 44.1817984 46.6442636 48.9254419 46.6442636 48.9254419 43.5258915 36.0290078 43.5258915"></polygon>
                    <path d="M29.062,51.3133798 L29.062,48.7842326 L29.0611473,48.7842326 L25.7133953,48.7842326 L25.7125426,48.7842326 L25.7125426,51.3133798 C25.7125426,55.7679535 22.6683566,58.0950078 20.9612248,59.0517519 L20.9612248,62.744 C21.2008372,62.6595814 25.0866512,61.2142326 27.3872713,57.4443876 C29.6657209,61.1775659 33.4935504,62.6297364 33.7996744,62.7388837 L33.7996744,59.0432248 C32.0899845,58.0822171 29.062,55.7568682 29.062,51.3133798" id="Fill-32" fill="#FEFEFE" mask="url(#mask-2)"></path>
                    <polygon id="Fill-33" fill="#FEFEFE" mask="url(#mask-2)" points="50.3177519 52.6575969 57.9111628 52.6575969 57.9111628 49.5417829 50.3177519 49.5417829"></polygon>
                    <polygon id="Fill-34" fill="#FEFEFE" mask="url(#mask-2)" points="50.3177519 46.6451163 57.9111628 46.6451163 57.9111628 43.5258915 50.3177519 43.5258915"></polygon>
                </g>
            </g>
        </g>
    </g>
</svg>